nColumns=19
nRows=53
DataType=double
version=3
OpenSimVersion=4.1
endheader
time	ground_force_1_vx	ground_force_1_vy	ground_force_1_vz	ground_force_1_px	ground_force_1_py	ground_force_1_pz	ground_force_1_mx	ground_force_1_my	ground_force_1_mz	ground_force_2_vx	ground_force_2_vy	ground_force_2_vz	ground_force_2_px	ground_force_2_py	ground_force_2_pz	ground_force_2_mx	ground_force_2_my	ground_force_2_mz
2.72	-0.322022	0.258786	0.0485123	1.19671	0	-0.430389	0	-1.70936e-10	0	88.9253	738.187	36.0486	0.741252	0	-0.562606	0	-0.565369	0
2.725	-0.589894	0.533927	0.1093	1.19923	0	-0.431029	0	-1.03197e-09	0	94.8139	738.687	37.8455	0.742496	0	-0.5613	0	-0.979279	0
2.73	-1.1614	1.17003	0.261525	1.20105	0	-0.431543	0	-6.53137e-09	0	98.5414	737.158	36.7251	0.7438	0	-0.55985	0	-1.36077	0
2.735	-2.52831	2.76057	0.628749	1.20229	0	-0.431823	0	-4.17407e-08	0	101.382	732.417	34.4103	0.745163	0	-0.558313	0	-1.63532	0
2.74	-4.38328	6.48591	1.34385	1.20236	0	-0.43188	0	-5.02225e-07	0	104.71	724.766	31.9073	0.746543	0	-0.556749	0	-1.74584	0
2.745	-2.47654	13.9608	2.28415	1.20166	0	-0.431837	0	-4.95035e-06	0	108.23	715.128	29.1254	0.747922	0	-0.555185	0	-1.70251	0
2.75	2.79284	25.7599	4.40619	1.20182	0	-0.431925	0	-2.69709e-05	0	111.522	703.654	25.7517	0.749329	0	-0.553612	0	-1.5711	0
2.755	7.68602	41.3118	7.76494	1.2024	0	-0.43201	0	-0.000137406	0	114.648	690.302	22.3682	0.75081	0	-0.551966	0	-1.39725	0
2.76	9.99468	71.0189	12.6612	1.20301	0	-0.432074	0	-0.000641758	0	117.498	675.017	18.9962	0.752398	0	-0.550195	0	-1.19993	0
2.765	6.73226	124.296	16.6045	1.20354	0	-0.43217	0	-0.00281108	0	119.804	657.587	15.4904	0.754096	0	-0.548352	0	-0.984029	0
2.77	-0.381233	185.608	17.9462	1.20411	0	-0.432255	0	-0.0111985	0	121.423	637.883	12.3021	0.755905	0	-0.54649	0	-0.741626	0
2.775	-4.3995	238.745	19.9828	1.20488	0	-0.432228	0	-0.0371694	0	122.397	615.83	9.58827	0.75787	0	-0.544513	0	-0.489021	0
2.78	-9.77395	278.562	20.3358	1.20592	0	-0.43205	0	-0.0973214	0	122.607	591.663	6.88952	0.760015	0	-0.542374	0	-0.276514	0
2.785	-17.2087	307.204	19.6903	1.20739	0	-0.431636	0	-0.196714	0	121.924	565.52	4.19648	0.762313	0	-0.540164	0	-0.136499	0
2.79	-24.6014	329.181	19.172	1.20935	0	-0.430961	0	-0.315265	0	120.404	537.402	1.75688	0.764744	0	-0.537973	0	-0.0422779	0
2.795	-32.028	348.02	17.9883	1.21161	0	-0.430164	0	-0.421043	0	117.919	507.353	-0.836229	0.767249	0	-0.535966	0	0.0389055	0
2.8	-39.8973	366.202	16.182	1.21415	0	-0.429348	0	-0.510561	0	114.487	476.194	-3.35483	0.76974	0	-0.534369	0	0.113717	0
2.805	-47.3402	388.469	13.6412	1.21793	0	-0.428282	0	-0.613414	0	109.732	444.557	-5.5465	0.772193	0	-0.533272	0	0.188777	0
2.81	-54.3674	418.501	10.0409	1.22407	0	-0.426799	0	-0.657425	0	102.698	411.775	-7.541	0.774741	0	-0.532532	0	0.261136	0
2.815	-62.0573	453.781	5.33103	1.23225	0	-0.425379	0	-0.411308	0	94.6408	375.339	-9.23087	0.777597	0	-0.532055	0	0.324825	0
2.82	-69.2521	488.223	0.333323	1.24107	0	-0.424512	0	0.207808	0	87.0361	332.213	-10.5061	0.781038	0	-0.531851	0	0.37395	0
2.825	-75.5099	517.103	-3.97527	1.24932	0	-0.424189	0	0.903356	0	78.0447	283.121	-11.631	0.785552	0	-0.531616	0	0.365161	0
2.83	-81.1858	541.545	-7.51478	1.25681	0	-0.424323	0	1.40524	0	66.4938	233.53	-12.6507	0.791336	0	-0.531392	0	0.284715	0
2.835	-86.3142	565.34	-9.8188	1.26376	0	-0.424874	0	1.57716	0	54.347	187.827	-12.9045	0.798377	0	-0.531046	0	0.125577	0
2.84	-90.3001	588.619	-11.2549	1.27002	0	-0.425567	0	1.40966	0	43.5794	154.267	-13.1113	0.803368	0	-0.530822	0	-0.00320976	0
2.845	-93.3649	610.351	-12.6067	1.27545	0	-0.426159	0	1.02624	0	34.5991	128.555	-12.8954	0.80424	0	-0.530783	0	-2.00454e-06	0
2.85	-95.6952	629.247	-14.2798	1.27998	0	-0.42658	0	0.476308	0	28.3707	100.513	-11.3131	0.805405	0	-0.530664	0	-9.69596e-10	0
2.855	-97.0117	645.512	-16.5307	1.28355	0	-0.42681	0	-0.0957275	0	20.9301	74.2371	-10.0516	0.806647	0	-0.530534	0	-1.28964e-12	0
2.86	-97.5972	662.414	-19.2233	1.28607	0	-0.426807	0	-0.468509	0	10.176	48.0897	-9.3649	0.80789	0	-0.530414	0	-5.32907e-15	0
2.865	-97.6168	681.223	-21.9307	1.28766	0	-0.426574	0	-0.602582	0	0.603451	24.2486	-6.52228	0.809218	0	-0.530176	0	-8.88178e-16	0
2.87	-97.1512	698.491	-23.9179	1.2887	0	-0.426215	0	-0.693442	0	-2.55599	4.88046	-1.36604	0.810813	0	-0.529707	0	-2.22045e-16	0
2.875	-96.212	712.349	-25.0691	1.28946	0	-0.425801	0	-0.881617	0	0.00423133	-0.00429502	0.000352443	0.814307	0	-0.529182	0	-3.79471e-19	0
2.88	-94.8625	723.622	-25.4315	1.28998	0	-0.425329	0	-1.09392	0	7.5313e-06	-6.73584e-06	-1.69718e-07	0.819784	0	-0.529137	0	5.02926e-22	0
2.885	-93.1307	732.973	-25.4471	1.29039	0	-0.424815	0	-1.28011	0	1.81399e-06	-1.49968e-06	-1.02543e-07	0.826546	0	-0.529389	0	-3.97047e-23	0
2.89	-91.0097	740.586	-25.6401	1.2907	0	-0.424267	0	-1.45836	0	2.16109e-07	-1.64434e-07	-1.34183e-08	0.834493	0	-0.52976	0	-1.65436e-24	0
2.895	-88.565	746.501	-26.3724	1.29091	0	-0.423686	0	-1.58479	0	1.27331e-08	-8.85201e-09	-7.82908e-10	0.843877	0	-0.530208	0	0	0
2.9	-85.9188	750.467	-27.7076	1.29106	0	-0.423085	0	-1.65191	0	3.46838e-09	-2.2249e-09	-2.16079e-10	0.854668	0	-0.530756	0	-7.23783e-25	0
2.905	-83.1008	752.449	-29.3484	1.2912	0	-0.422481	0	-1.663	0	5.44125e-09	-3.25466e-09	-3.35723e-10	0.866696	0	-0.531367	0	-5.37667e-24	0
2.91	-80.1754	752.701	-30.9998	1.29135	0	-0.421895	0	-1.62041	0	1.55352e-08	-8.68918e-09	-9.17554e-10	0.87994	0	-0.532001	0	-5.86264e-23	0
2.915	-77.2016	751.353	-32.3151	1.29152	0	-0.421333	0	-1.56952	0	9.25897e-08	-4.8621e-08	-5.19334e-09	0.894344	0	-0.532652	0	-1.25235e-21	0
2.92	-74.1836	748.497	-33.2153	1.29173	0	-0.420788	0	-1.52043	0	1.18851e-06	-5.89446e-07	-6.31219e-08	0.909759	0	-0.533306	0	-5.13315e-20	0
2.925	-71.1456	744.157	-33.8613	1.292	0	-0.420257	0	-1.48373	0	1.55102e-05	-7.30626e-06	-7.73805e-07	0.926035	0	-0.533943	0	-3.48596e-18	0
2.93	-68.1002	738.262	-34.3885	1.29233	0	-0.419738	0	-1.47863	0	-8.94318e-05	4.01847e-05	4.15998e-06	0.943062	0	-0.53455	0	-1.7558e-16	0
2.935	-65.0631	730.842	-35.0083	1.29274	0	-0.419236	0	-1.4718	0	-0.000126566	5.44986e-05	5.454e-06	0.9607	0	-0.535116	0	4.86332e-16	0
2.94	-62.0457	722.165	-35.719	1.29323	0	-0.418756	0	-1.43422	0	-0.000120896	5.00965e-05	4.79669e-06	0.978825	0	-0.535637	0	-1.92472e-15	0
2.945	-59.0772	712.416	-36.3786	1.29376	0	-0.418302	0	-1.37319	0	-0.000114018	4.56483e-05	4.13576e-06	0.997324	0	-0.536106	0	-4.18697e-15	0
2.95	-56.1903	701.691	-36.8772	1.29434	0	-0.417875	0	-1.29268	0	-0.000114679	4.45109e-05	3.78132e-06	1.01611	0	-0.536524	0	-6.25718e-15	0
2.955	-53.4388	690.216	-37.1103	1.29496	0	-0.417474	0	-1.2114	0	-0.000127127	4.79957e-05	3.78651e-06	1.0351	0	-0.536891	0	-8.93601e-15	0
2.96	-50.8042	678.229	-37.1021	1.29562	0	-0.417092	0	-1.13744	0	-0.000156521	5.76419e-05	4.18703e-06	1.05424	0	-0.53721	0	-1.36209e-14	0
2.965	-48.244	665.953	-37.0386	1.29632	0	-0.416727	0	-1.06477	0	-0.000214453	7.72407e-05	5.12361e-06	1.07348	0	-0.537486	0	-2.29126e-14	0
2.97	-45.7845	653.631	-37.0013	1.29708	0	-0.41638	0	-0.993186	0	-0.000324693	0.000114631	6.89141e-06	1.09279	0	-0.537723	0	-4.28691e-14	0
2.975	-43.3951	641.409	-37.0649	1.29793	0	-0.41606	0	-0.904547	0	-0.0005386	0.00018677	1.00897e-05	1.11217	0	-0.537925	0	-8.94311e-14	0
2.98	-40.9699	629.507	-37.1465	1.29881	0	-0.415777	0	-0.792209	0	-0.000965987	0.000329586	1.58712e-05	1.13162	0	-0.538095	0	-2.06778e-13	0
